<svg id="svg" version="1.1" width="400" height="300" xmlns="http://www.w3.org/2000/svg" xmlns:xlink="http://www.w3.org/1999/xlink" style="display: block;"><g id="svgg"><path id="path0" d="" stroke="none" fill="#000000" fill-rule="evenodd"></path><path id="path1" d="" stroke="none" fill="#550000" fill-rule="evenodd"></path><path id="path2" d="M73.181 0.152 C 73.075 0.258,71.371 0.547,69.394 0.793 C 67.417 1.040,64.720 1.518,63.400 1.856 C 62.080 2.194,60.247 2.626,59.327 2.818 C 57.309 3.238,50.594 5.476,49.200 6.193 C 48.650 6.477,46.850 7.359,45.200 8.155 C 42.101 9.649,39.713 10.926,38.978 11.481 C 38.229 12.048,37.015 12.798,36.400 13.076 C 33.497 14.385,21.150 25.905,18.475 29.800 C 18.324 30.021,17.732 30.831,17.161 31.600 C 15.244 34.183,12.000 39.585,12.000 40.196 C 12.000 40.528,11.840 40.800,11.643 40.800 C 11.447 40.800,11.163 41.293,11.012 41.896 C 10.860 42.499,10.604 43.084,10.443 43.196 C 9.997 43.505,6.798 51.302,6.799 52.076 C 6.800 52.448,6.656 52.842,6.479 52.951 C 5.426 53.602,1.848 67.673,0.618 76.000 C -0.733 85.147,-0.017 103.936,1.990 112.000 C 3.237 117.010,3.646 118.686,3.844 119.600 C 3.963 120.150,4.213 120.960,4.400 121.400 C 4.586 121.840,5.049 123.241,5.428 124.513 C 5.807 125.785,6.271 126.920,6.459 127.036 C 6.646 127.152,6.800 127.524,6.800 127.863 C 6.800 128.202,7.070 129.091,7.400 129.840 C 7.730 130.588,8.246 131.785,8.546 132.500 C 8.847 133.215,9.341 134.385,9.644 135.100 C 9.947 135.815,10.331 136.400,10.498 136.400 C 10.664 136.400,10.800 136.676,10.800 137.013 C 10.800 138.313,19.632 153.178,22.375 156.493 C 22.606 156.772,23.418 157.810,24.179 158.800 C 24.941 159.790,25.797 160.881,26.082 161.225 C 26.367 161.569,27.406 162.829,28.391 164.025 C 34.140 171.007,43.369 180.130,51.200 186.573 C 54.656 189.416,57.587 191.886,59.847 193.860 C 60.312 194.267,61.281 195.050,62.000 195.600 C 62.719 196.150,63.778 197.005,64.353 197.500 C 64.929 197.994,65.522 198.399,65.671 198.400 C 65.821 198.400,66.181 198.629,66.471 198.908 C 68.078 200.452,77.524 206.870,101.800 222.910 C 111.781 229.505,121.969 236.571,125.800 239.558 C 126.680 240.244,127.850 241.148,128.400 241.567 C 128.950 241.987,130.120 242.883,131.000 243.560 C 131.880 244.237,132.786 244.928,133.014 245.095 C 137.780 248.608,147.404 257.740,150.617 261.799 C 151.488 262.899,152.425 264.037,152.700 264.328 C 152.975 264.619,153.200 264.990,153.200 265.153 C 153.200 265.316,153.517 265.798,153.904 266.225 C 154.900 267.323,157.031 271.488,157.625 273.500 C 158.262 275.659,158.396 275.638,160.083 273.100 C 164.630 266.258,173.363 256.976,182.200 249.592 C 187.734 244.967,187.082 245.110,190.928 247.682 C 192.727 248.886,199.303 253.275,205.539 257.436 C 211.776 261.596,217.446 265.406,218.139 265.901 C 218.833 266.397,220.106 267.274,220.969 267.850 C 221.831 268.426,222.731 269.060,222.969 269.259 C 223.206 269.458,225.560 271.273,228.200 273.293 C 230.840 275.313,233.210 277.154,233.466 277.383 C 233.722 277.612,234.976 278.700,236.254 279.800 C 243.819 286.316,250.282 294.231,251.821 298.864 C 252.606 301.225,252.945 301.178,254.840 298.445 C 255.637 297.295,257.080 295.438,258.045 294.318 C 259.010 293.198,260.070 291.940,260.400 291.523 C 261.007 290.755,268.769 283.002,271.024 280.911 C 271.697 280.287,273.677 278.615,275.424 277.196 C 277.171 275.777,278.660 274.477,278.733 274.308 C 278.807 274.139,279.030 274.000,279.229 274.000 C 279.428 274.000,280.628 273.212,281.896 272.249 C 288.654 267.115,295.662 262.914,306.800 257.318 C 311.090 255.163,314.690 253.310,314.800 253.200 C 314.910 253.090,316.260 252.359,317.800 251.575 C 321.752 249.565,326.686 246.892,328.800 245.616 C 329.790 245.019,331.860 243.772,333.400 242.845 C 337.373 240.453,337.317 240.488,341.977 237.418 C 346.111 234.694,354.804 228.530,355.200 228.042 C 355.310 227.906,356.120 227.266,357.000 226.619 C 357.880 225.972,358.690 225.328,358.800 225.188 C 358.910 225.048,360.260 223.874,361.800 222.579 C 367.659 217.652,376.152 208.717,380.419 202.990 C 381.399 201.676,382.346 200.420,382.523 200.200 C 383.199 199.363,386.375 194.352,387.267 192.712 C 387.780 191.771,388.312 190.910,388.449 190.800 C 389.188 190.208,394.345 178.676,395.425 175.200 C 395.802 173.990,396.259 172.640,396.441 172.200 C 396.973 170.919,398.418 164.893,399.080 161.200 C 400.038 155.855,400.257 136.307,399.424 130.400 C 398.039 120.574,395.764 113.680,391.966 107.800 C 391.539 107.140,391.082 106.285,390.949 105.900 C 390.816 105.515,390.586 105.200,390.440 105.200 C 390.293 105.200,389.832 104.615,389.416 103.900 C 389.001 103.185,388.556 102.510,388.428 102.400 C 388.300 102.290,387.662 101.480,387.009 100.600 C 381.673 93.403,369.910 84.069,361.200 80.122 C 357.093 78.261,356.459 78.000,356.034 78.000 C 355.789 78.000,355.277 77.826,354.895 77.613 C 353.961 77.092,351.087 76.209,348.400 75.618 C 347.190 75.351,345.570 74.957,344.800 74.741 C 344.030 74.526,341.015 74.245,338.100 74.118 L 332.800 73.887 332.800 72.494 C 332.800 66.027,328.137 51.639,324.124 45.726 C 323.616 44.977,323.200 44.295,323.200 44.211 C 323.200 44.126,322.435 42.940,321.500 41.576 C 319.149 38.145,318.667 37.468,318.203 36.946 C 317.981 36.696,316.810 35.352,315.600 33.960 C 309.119 26.503,299.495 18.595,293.000 15.390 C 292.120 14.955,291.310 14.494,291.200 14.365 C 290.845 13.949,284.034 10.800,283.488 10.800 C 283.198 10.800,282.789 10.640,282.580 10.445 C 282.251 10.137,280.765 9.609,274.579 7.602 C 273.907 7.384,272.557 7.045,271.579 6.850 C 270.601 6.655,268.360 6.186,266.600 5.810 C 261.405 4.698,246.358 4.737,241.106 5.877 C 239.728 6.176,237.644 6.588,236.475 6.793 C 234.377 7.161,232.837 7.597,229.892 8.657 C 229.062 8.956,228.109 9.200,227.773 9.200 C 227.436 9.200,226.416 9.560,225.506 10.000 C 224.595 10.440,223.694 10.800,223.503 10.800 C 222.666 10.800,212.437 15.728,209.768 17.417 C 208.651 18.124,207.346 18.827,206.868 18.978 C 206.391 19.130,206.000 19.422,206.000 19.627 C 206.000 19.832,205.745 20.000,205.433 20.000 C 205.122 20.000,204.807 20.135,204.733 20.300 C 204.603 20.593,200.176 23.642,199.418 23.961 C 199.208 24.049,198.848 24.281,198.618 24.476 C 198.388 24.672,196.760 25.922,195.000 27.254 C 193.240 28.586,191.530 29.916,191.200 30.210 C 190.870 30.504,190.139 31.162,189.576 31.672 C 189.013 32.182,187.405 33.590,186.003 34.800 C 184.602 36.010,181.481 38.941,179.069 41.314 C 176.657 43.687,174.555 45.577,174.398 45.514 C 174.241 45.451,171.342 42.766,167.956 39.546 C 162.707 34.556,158.114 30.441,153.952 27.000 C 153.420 26.560,151.908 25.397,150.592 24.417 C 149.276 23.436,147.853 22.313,147.429 21.921 C 147.006 21.530,146.331 21.105,145.929 20.978 C 145.528 20.850,145.200 20.578,145.200 20.373 C 145.200 20.168,144.930 20.000,144.600 20.000 C 144.270 20.000,144.000 19.861,144.000 19.691 C 144.000 19.521,143.370 19.043,142.600 18.628 C 141.830 18.213,141.200 17.722,141.200 17.537 C 141.200 17.352,141.018 17.200,140.797 17.200 C 140.575 17.200,139.648 16.660,138.737 16.000 C 137.825 15.340,136.852 14.800,136.573 14.800 C 136.295 14.800,136.007 14.652,135.933 14.471 C 135.733 13.977,126.224 8.912,123.000 7.582 C 122.560 7.400,121.300 6.869,120.200 6.402 C 115.425 4.373,107.320 2.003,101.400 0.903 C 98.324 0.332,73.658 -0.325,73.181 0.152 M96.234 5.173 C 114.650 7.886,130.445 16.180,145.424 31.000 C 156.042 41.506,158.737 47.839,153.347 49.617 C 150.135 50.677,147.971 49.191,142.095 41.890 C 128.679 25.219,113.519 15.267,93.746 10.151 C 88.070 8.682,76.953 6.803,73.933 6.801 C 69.520 6.799,70.329 5.162,75.200 4.238 C 77.395 3.822,91.243 4.437,96.234 5.173 M283.394 21.959 C 298.078 27.498,309.719 38.727,317.231 54.600 C 323.970 68.837,322.954 76.283,316.004 63.600 C 306.238 45.780,294.572 35.321,275.446 27.235 C 270.284 25.054,269.197 24.322,269.206 23.038 C 269.232 19.523,275.642 19.035,283.394 21.959 M201.534 74.191 C 216.805 76.739,229.592 83.594,241.824 95.789 C 250.183 104.123,252.330 108.106,249.818 110.618 C 247.498 112.938,244.491 111.642,240.462 106.585 C 225.469 87.765,209.341 78.811,184.995 75.791 C 182.374 75.466,179.984 75.200,179.682 75.200 C 178.503 75.200,179.552 74.197,181.229 73.721 C 183.587 73.052,196.499 73.351,201.534 74.191 M356.842 87.837 C 370.945 92.900,382.265 104.399,387.923 119.410 C 390.536 126.341,390.899 129.384,389.028 128.666 C 388.363 128.411,387.623 127.277,382.886 119.246 C 375.667 107.008,362.326 96.125,349.514 92.023 C 347.046 91.233,345.369 89.404,346.096 88.296 C 347.497 86.165,351.686 85.986,356.842 87.837 " stroke="none" fill="#ed1c24" fill-rule="evenodd"></path><path id="path3" d="M75.200 4.238 C 70.329 5.162,69.520 6.799,73.933 6.801 C 76.953 6.803,88.070 8.682,93.746 10.151 C 113.519 15.267,128.679 25.219,142.095 41.890 C 147.971 49.191,150.135 50.677,153.347 49.617 C 158.737 47.839,156.042 41.506,145.424 31.000 C 132.835 18.544,118.939 10.349,104.034 6.591 C 97.457 4.933,79.336 3.454,75.200 4.238 M271.213 20.606 C 267.218 22.416,268.391 24.253,275.446 27.235 C 294.572 35.321,306.238 45.780,316.004 63.600 C 321.265 73.200,323.652 72.174,320.192 61.800 C 316.179 49.766,307.421 37.222,298.000 30.013 C 288.598 22.818,276.053 18.412,271.213 20.606 M181.229 73.721 C 179.552 74.197,178.503 75.200,179.682 75.200 C 179.984 75.200,182.374 75.466,184.995 75.791 C 209.341 78.811,225.469 87.765,240.462 106.585 C 244.491 111.642,247.498 112.938,249.818 110.618 C 255.153 105.283,231.931 83.755,213.956 77.373 C 204.547 74.032,187.024 72.077,181.229 73.721 M348.043 86.898 C 344.809 88.093,345.576 90.762,349.514 92.023 C 362.326 96.125,375.667 107.008,382.886 119.246 C 387.623 127.277,388.363 128.411,389.028 128.666 C 392.542 130.014,387.975 117.011,381.543 107.352 C 373.110 94.688,355.710 84.065,348.043 86.898 " stroke="none" fill="#facad6" fill-rule="evenodd"></path></g></svg>